<svg width="32" height="32" viewBox="0 0 32 32" fill="none" xmlns="http://www.w3.org/2000/svg">
  <rect x="4" y="8" width="24" height="20" rx="2" fill="#3B82F6"/>
  <rect x="6" y="10" width="4" height="3" rx="0.5" fill="white"/>
  <rect x="12" y="10" width="4" height="3" rx="0.5" fill="white"/>
  <rect x="18" y="10" width="4" height="3" rx="0.5" fill="white"/>
  <rect x="24" y="10" width="4" height="3" rx="0.5" fill="white"/>
  <rect x="6" y="15" width="4" height="3" rx="0.5" fill="white"/>
  <rect x="12" y="15" width="4" height="3" rx="0.5" fill="white"/>
  <rect x="18" y="15" width="4" height="3" rx="0.5" fill="white"/>
  <rect x="24" y="15" width="4" height="3" rx="0.5" fill="white"/>
  <rect x="6" y="20" width="4" height="3" rx="0.5" fill="white"/>
  <rect x="12" y="20" width="4" height="3" rx="0.5" fill="white"/>
  <rect x="18" y="20" width="4" height="3" rx="0.5" fill="white"/>
  <rect x="24" y="20" width="4" height="3" rx="0.5" fill="white"/>
  <rect x="14" y="24" width="4" height="4" rx="0.5" fill="white"/>
  <path d="M2 8L16 2L30 8" stroke="#3B82F6" stroke-width="2" stroke-linecap="round" stroke-linejoin="round"/>
</svg>